<?xml version="1.0" encoding="utf-8"?>
<!-- Generator: Adobe Illustrator 16.0.3, SVG Export Plug-In . SVG Version: 6.00 Build 0)  -->
<!DOCTYPE svg PUBLIC "-//W3C//DTD SVG 1.1//EN" "http://www.w3.org/Graphics/SVG/1.1/DTD/svg11.dtd">
<svg version="1.1" id="Layer_1" xmlns="http://www.w3.org/2000/svg" xmlns:xlink="http://www.w3.org/1999/xlink" x="0px" y="0px"
	 width="381px" height="151.223px" viewBox="-407.227 28.197 381 151.223" enable-background="new -407.227 28.197 381 151.223"
	 xml:space="preserve">
<g>
	<g>
		<path fill="#005367" d="M-275.666,82.848c-2.048,0-4.019,0.287-5.918,0.774c3.771,6.8,5.918,14.618,5.918,22.943
			c0,8.324-2.147,16.143-5.918,22.941c1.899,0.489,3.87,0.775,5.918,0.775c13.101,0,23.719-10.619,23.719-23.716
			C-251.946,93.465-262.565,82.848-275.666,82.848z"/>
		<path fill="#005367" d="M-364.61,83.622c-1.899-0.488-3.873-0.774-5.92-0.774c-13.099,0-23.717,10.617-23.717,23.717
			c0,13.097,10.619,23.716,23.717,23.716c2.047,0,4.021-0.286,5.92-0.775c-3.766-6.798-5.919-14.617-5.919-22.941
			C-370.529,98.24-368.376,90.423-364.61,83.622z"/>
		<path fill="#005367" d="M-300.155,65.051c0.486-1.893,0.772-3.87,0.772-5.917c0-13.1-10.618-23.718-23.716-23.718
			s-23.717,10.619-23.717,23.718c0,2.046,0.287,4.024,0.773,5.917c6.804-3.763,14.621-5.915,22.945-5.915
			S-306.955,61.287-300.155,65.051z"/>
		<path fill="#005367" d="M-346.043,148.079c-0.486,1.894-0.773,3.871-0.773,5.918c0,13.1,10.619,23.717,23.717,23.717
			s23.716-10.617,23.716-23.717c0-2.047-0.286-4.021-0.772-5.916c-6.799,3.764-14.618,5.916-22.942,5.916
			C-331.424,153.997-339.239,151.845-346.043,148.079z"/>
		<path fill="#005367" d="M-287.428,175.781c1.453,1.448,3.049,2.645,4.736,3.639c2.146-7.472,6.154-14.522,12.04-20.411
			c5.887-5.885,12.936-9.892,20.406-12.037c-0.994-1.684-2.186-3.281-3.633-4.729c-9.261-9.267-24.28-9.267-33.549-0.001
			C-296.688,151.505-296.688,166.521-287.428,175.781z"/>
		<path fill="#005367" d="M-395.951,66.16c0.992,1.685,2.189,3.284,3.636,4.729c9.261,9.266,24.278,9.266,33.542,0
			c9.261-9.259,9.261-24.277,0-33.539c-1.447-1.447-3.045-2.642-4.734-3.637c-2.14,7.471-6.152,14.521-12.036,20.406
			C-381.429,60.005-388.481,64.014-395.951,66.16z"/>
		<path fill="#005367" d="M-282.695,33.714c-1.688,0.994-3.285,2.189-4.733,3.636c-9.261,9.261-9.261,24.279,0,33.539
			c9.261,9.266,24.281,9.266,33.542,0c1.447-1.445,2.643-3.043,3.641-4.73c-7.475-2.145-14.524-6.153-20.411-12.042
			C-276.542,48.233-280.549,41.184-282.695,33.714z"/>
		<path fill="#005367" d="M-363.507,179.418c1.684-0.993,3.284-2.189,4.734-3.638c9.26-9.26,9.26-24.281,0-33.54
			c-9.264-9.266-24.282-9.266-33.546,0c-1.444,1.445-2.642,3.047-3.633,4.729c7.469,2.146,14.516,6.153,20.405,12.036
			C-369.662,164.897-365.656,171.948-363.507,179.418z"/>
		<path fill="#005367" d="M-294.212,83.622c-10.234,2.631-17.803,11.894-17.802,22.943c0,11.048,7.567,20.31,17.802,22.941
			c3.767-6.798,5.914-14.617,5.914-22.941C-288.298,98.24-290.445,90.423-294.212,83.622z"/>
		<path fill="#005367" d="M-334.958,106.565c0-11.049-7.573-20.312-17.801-22.943c-3.769,6.801-5.915,14.618-5.915,22.943
			c0,8.324,2.146,16.143,5.915,22.941C-342.526,126.875-334.958,117.614-334.958,106.565z"/>
		<path fill="#005367" d="M-323.099,94.707c11.054,0,20.311-7.567,22.947-17.8c-6.801-3.767-14.621-5.917-22.945-5.917
			s-16.141,2.15-22.945,5.918C-343.405,87.14-334.151,94.707-323.099,94.707z"/>
		<path fill="#005367" d="M-323.099,118.423c-11.049,0-20.306,7.569-22.944,17.8c6.804,3.769,14.619,5.918,22.947,5.918
			c8.323,0,16.143-2.149,22.94-5.913C-302.784,125.992-312.044,118.423-323.099,118.423z"/>
		<path fill="#01354A" d="M-275.666,82.848c-2.048,0-4.019,0.287-5.918,0.774c3.771,6.8,5.918,14.618,5.918,22.943
			c0,8.324-2.147,16.143-5.918,22.941c1.899,0.489,3.87,0.775,5.918,0.775c13.101,0,23.719-10.619,23.719-23.716
			C-251.946,93.465-262.565,82.848-275.666,82.848z"/>
		<path fill="#01354A" d="M-364.61,83.622c-1.899-0.488-3.873-0.774-5.92-0.774c-13.099,0-23.717,10.617-23.717,23.717
			c0,13.097,10.619,23.716,23.717,23.716c2.047,0,4.021-0.286,5.92-0.775c-3.766-6.798-5.919-14.617-5.919-22.941
			C-370.529,98.24-368.376,90.423-364.61,83.622z"/>
		<path fill="#01354A" d="M-300.155,65.051c0.486-1.893,0.772-3.87,0.772-5.917c0-13.1-10.618-23.718-23.716-23.718
			s-23.717,10.619-23.717,23.718c0,2.046,0.287,4.024,0.773,5.917c6.804-3.763,14.621-5.915,22.945-5.915
			S-306.955,61.287-300.155,65.051z"/>
		<path fill="#01354A" d="M-346.043,148.079c-0.486,1.894-0.773,3.871-0.773,5.918c0,13.1,10.619,23.717,23.717,23.717
			s23.716-10.617,23.716-23.717c0-2.047-0.286-4.021-0.772-5.916c-6.799,3.764-14.618,5.916-22.942,5.916
			C-331.424,153.997-339.239,151.845-346.043,148.079z"/>
		<path fill="#005367" d="M-287.428,175.781c1.453,1.448,3.049,2.645,4.736,3.639c2.146-7.472,6.154-14.522,12.04-20.411
			c5.887-5.885,12.936-9.892,20.406-12.037c-0.994-1.684-2.186-3.281-3.633-4.729c-9.261-9.267-24.28-9.267-33.549-0.001
			C-296.688,151.505-296.688,166.521-287.428,175.781z"/>
		<path fill="#005367" d="M-395.951,66.16c0.992,1.685,2.189,3.284,3.636,4.729c9.261,9.266,24.278,9.266,33.542,0
			c9.261-9.259,9.261-24.277,0-33.539c-1.447-1.447-3.045-2.642-4.734-3.637c-2.14,7.471-6.152,14.521-12.036,20.406
			C-381.429,60.005-388.481,64.014-395.951,66.16z"/>
		<path fill="#005367" d="M-282.695,33.714c-1.688,0.994-3.285,2.189-4.733,3.636c-9.261,9.261-9.261,24.279,0,33.539
			c9.261,9.266,24.281,9.266,33.542,0c1.447-1.445,2.643-3.043,3.641-4.73c-7.475-2.145-14.524-6.153-20.411-12.042
			C-276.542,48.233-280.549,41.184-282.695,33.714z"/>
		<path fill="#005367" d="M-363.507,179.418c1.684-0.993,3.284-2.189,4.734-3.638c9.26-9.26,9.26-24.281,0-33.54
			c-9.264-9.266-24.282-9.266-33.546,0c-1.444,1.445-2.642,3.047-3.633,4.729c7.469,2.146,14.516,6.153,20.405,12.036
			C-369.662,164.897-365.656,171.948-363.507,179.418z"/>
		<path fill="#347E90" d="M-294.212,83.622c-10.234,2.631-17.803,11.894-17.802,22.943c0,11.048,7.567,20.31,17.802,22.941
			c3.767-6.798,5.914-14.617,5.914-22.941C-288.298,98.24-290.445,90.423-294.212,83.622z"/>
		<path fill="#347E90" d="M-334.958,106.565c0-11.049-7.573-20.312-17.801-22.943c-3.769,6.801-5.915,14.618-5.915,22.943
			c0,8.324,2.146,16.143,5.915,22.941C-342.526,126.875-334.958,117.614-334.958,106.565z"/>
		<path fill="#347E90" d="M-323.099,94.707c11.054,0,20.311-7.567,22.947-17.8c-6.801-3.767-14.621-5.917-22.945-5.917
			s-16.141,2.15-22.945,5.918C-343.405,87.14-334.151,94.707-323.099,94.707z"/>
		<path fill="#347E90" d="M-323.099,118.423c-11.049,0-20.306,7.569-22.944,17.8c6.804,3.769,14.619,5.918,22.947,5.918
			c8.323,0,16.143-2.149,22.94-5.913C-302.784,125.992-312.044,118.423-323.099,118.423z"/>
	</g>
	<g>
		<g>
			<g>
				<path d="M-236.846,115.75h2.55v14.506h-2.55V115.75z"/>
				<path d="M-224.891,130.256v-6.921c0-0.601-0.107-1.082-0.321-1.446c-0.214-0.363-0.579-0.545-1.092-0.545
					c-0.329,0-0.647,0.081-0.954,0.244c-0.308,0.165-0.582,0.405-0.825,0.719s-0.439,0.697-0.589,1.146
					c-0.15,0.451-0.225,0.954-0.225,1.511v5.293h-2.442v-5.399c0-0.856-0.058-1.574-0.172-2.152
					c-0.114-0.58-0.235-1.047-0.364-1.405c-0.158-0.414-0.329-0.749-0.514-1.006l1.929-0.771c0.143,0.156,0.285,0.349,0.428,0.577
					c0.115,0.2,0.229,0.447,0.343,0.74c0.115,0.292,0.208,0.624,0.279,0.995c0.371-0.857,0.907-1.475,1.607-1.854
					c0.7-0.377,1.436-0.566,2.207-0.566c1.1,0,1.896,0.331,2.389,0.996c0.493,0.663,0.74,1.56,0.74,2.689v7.155H-224.891z"/>
				<path d="M-216.62,119.328c0.414,0,0.821,0.044,1.221,0.129s0.757,0.186,1.071,0.3c0.372,0.128,0.715,0.266,1.029,0.406
					l-0.729,1.672c-0.286-0.129-0.571-0.242-0.856-0.343c-0.244-0.085-0.511-0.167-0.805-0.245c-0.292-0.08-0.581-0.118-0.867-0.118
					c-0.329,0-0.611,0.078-0.846,0.235s-0.354,0.394-0.354,0.707c0,0.814,0.592,1.45,1.778,1.906c0.442,0.172,0.843,0.354,1.2,0.547
					c0.357,0.193,0.661,0.418,0.911,0.675c0.25,0.258,0.439,0.554,0.568,0.89c0.128,0.335,0.193,0.731,0.193,1.188
					c0,0.4-0.083,0.793-0.247,1.179c-0.165,0.387-0.407,0.729-0.729,1.028c-0.322,0.3-0.714,0.538-1.178,0.718
					c-0.464,0.179-0.99,0.268-1.575,0.268c-0.471,0-0.936-0.053-1.393-0.161c-0.457-0.106-0.867-0.225-1.231-0.354
					c-0.365-0.128-0.653-0.248-0.868-0.364l-0.321-0.148l0.792-1.801l0.279,0.15c0.186,0.114,0.421,0.236,0.707,0.364
					c0.285,0.128,0.593,0.246,0.922,0.354c0.328,0.106,0.628,0.16,0.9,0.16c0.499,0,0.87-0.099,1.114-0.3
					c0.243-0.199,0.364-0.464,0.364-0.793c0-0.37-0.132-0.71-0.396-1.018c-0.265-0.306-0.661-0.56-1.189-0.761
					c-1.1-0.414-1.89-0.885-2.368-1.414c-0.478-0.528-0.718-1.214-0.718-2.057c0-0.399,0.093-0.781,0.279-1.146
					c0.185-0.364,0.438-0.686,0.76-0.964c0.321-0.279,0.704-0.495,1.146-0.654C-217.613,119.407-217.135,119.328-216.62,119.328z"/>
				<path d="M-212.121,119.585h1.928l0.428-2.507l2.014-0.449v2.956h2.636l-0.3,1.735h-2.336v6.343c0,0.37,0.101,0.61,0.301,0.718
					c0.2,0.106,0.42,0.161,0.664,0.161c0.2,0,0.4-0.015,0.6-0.043c0.2-0.029,0.378-0.064,0.536-0.107
					c0.186-0.043,0.364-0.093,0.536-0.149l0.406,1.606l-0.192,0.064c-0.129,0.058-0.318,0.117-0.568,0.183
					c-0.25,0.063-0.542,0.12-0.878,0.171c-0.335,0.05-0.704,0.074-1.103,0.074c-0.4,0-0.768-0.042-1.104-0.128
					s-0.625-0.226-0.868-0.418c-0.243-0.192-0.432-0.439-0.568-0.739c-0.136-0.301-0.203-0.672-0.203-1.114v-6.621h-1.928V119.585z"
					/>
				<path d="M-200.98,115.236c0.243,0.271,0.364,0.621,0.364,1.051c0,0.429-0.125,0.785-0.375,1.071
					c-0.25,0.285-0.618,0.429-1.104,0.429c-0.458,0-0.811-0.14-1.061-0.418c-0.25-0.279-0.375-0.617-0.375-1.018
					c0-0.443,0.125-0.808,0.375-1.094c0.25-0.285,0.625-0.428,1.125-0.428C-201.573,114.829-201.223,114.965-200.98,115.236z
					 M-202.694,129.667c-0.4-0.45-0.6-1.032-0.6-1.747v-8.335h2.442v8.122c0,0.326,0.05,0.549,0.15,0.663s0.25,0.172,0.45,0.172
					c0.057,0,0.118,0,0.183,0c0.063,0,0.124-0.007,0.181-0.022c0.058,0,0.122-0.006,0.193-0.021l0.257,1.542
					c-0.1,0.058-0.228,0.107-0.386,0.149c-0.128,0.044-0.29,0.08-0.482,0.108c-0.192,0.027-0.41,0.042-0.653,0.042
					C-201.716,130.341-202.294,130.116-202.694,129.667z"/>
				<path d="M-198.987,119.585h1.929l0.429-2.507l2.014-0.449v2.956h2.636l-0.3,1.735h-2.336v6.343c0,0.37,0.1,0.61,0.3,0.718
					c0.2,0.106,0.421,0.161,0.664,0.161c0.2,0,0.4-0.015,0.6-0.043c0.2-0.029,0.378-0.064,0.535-0.107
					c0.186-0.043,0.365-0.093,0.537-0.149l0.407,1.606l-0.193,0.064c-0.128,0.058-0.318,0.117-0.568,0.183
					c-0.25,0.063-0.543,0.12-0.878,0.171c-0.336,0.05-0.704,0.074-1.104,0.074c-0.4,0-0.768-0.042-1.103-0.128
					c-0.336-0.086-0.625-0.226-0.868-0.418c-0.244-0.192-0.432-0.439-0.567-0.739c-0.136-0.301-0.204-0.672-0.204-1.114v-6.621
					h-1.929V119.585z"/>
				<path d="M-183.732,119.585h2.442v5.507c0,0.856,0.054,1.574,0.161,2.153c0.107,0.58,0.225,1.047,0.354,1.403
					c0.157,0.429,0.329,0.765,0.514,1.007l-1.907,0.772c-0.171-0.157-0.328-0.357-0.471-0.601c-0.114-0.199-0.232-0.446-0.353-0.739
					c-0.122-0.292-0.204-0.64-0.247-1.039c-0.386,0.844-0.929,1.443-1.628,1.8c-0.7,0.356-1.428,0.536-2.186,0.536
					c-1.128,0-1.932-0.329-2.41-0.986c-0.479-0.656-0.718-1.557-0.718-2.7v-7.113h2.442v7.071c0,0.6,0.107,1.071,0.322,1.414
					c0.214,0.343,0.578,0.514,1.092,0.514c0.314,0,0.625-0.089,0.932-0.268c0.308-0.179,0.586-0.432,0.836-0.761
					s0.45-0.726,0.6-1.189c0.15-0.463,0.225-0.981,0.225-1.554V119.585z"/>
				<path d="M-179.49,119.585h1.928l0.429-2.507l2.014-0.449v2.956h2.636l-0.3,1.735h-2.335v6.343c0,0.37,0.1,0.61,0.3,0.718
					c0.2,0.106,0.42,0.161,0.664,0.161c0.2,0,0.4-0.015,0.6-0.043c0.2-0.029,0.378-0.064,0.536-0.107
					c0.186-0.043,0.364-0.093,0.536-0.149l0.406,1.606l-0.192,0.064c-0.128,0.058-0.318,0.117-0.568,0.183
					c-0.25,0.063-0.542,0.12-0.878,0.171c-0.335,0.05-0.704,0.074-1.103,0.074c-0.4,0-0.768-0.042-1.104-0.128
					c-0.335-0.086-0.625-0.226-0.868-0.418c-0.243-0.192-0.432-0.439-0.568-0.739c-0.136-0.301-0.203-0.672-0.203-1.114v-6.621
					h-1.928V119.585z"/>
				<path d="M-163.079,120.785c0.743,0.973,1.114,2.308,1.114,4.007c0,0.8-0.101,1.547-0.3,2.239c-0.2,0.692-0.503,1.293-0.91,1.8
					s-0.918,0.907-1.532,1.199c-0.614,0.293-1.328,0.439-2.143,0.439s-1.518-0.126-2.109-0.374c-0.594-0.25-1.083-0.611-1.468-1.083
					c-0.386-0.471-0.668-1.042-0.848-1.714c-0.178-0.672-0.267-1.428-0.267-2.271c0-0.813,0.099-1.566,0.3-2.26
					c0.199-0.692,0.503-1.293,0.911-1.801c0.406-0.506,0.917-0.906,1.531-1.2c0.614-0.292,1.328-0.438,2.143-0.438
					C-165.014,119.328-163.821,119.815-163.079,120.785z M-167.889,121.407c-0.265,0.186-0.471,0.445-0.621,0.782
					c-0.149,0.336-0.253,0.728-0.311,1.178c-0.057,0.451-0.086,0.933-0.086,1.445c0,0.53,0.032,1.029,0.097,1.501
					c0.064,0.471,0.182,0.883,0.354,1.231c0.171,0.351,0.403,0.626,0.697,0.825c0.292,0.201,0.666,0.3,1.124,0.3
					c0.414,0,0.753-0.093,1.018-0.278c0.266-0.186,0.472-0.447,0.621-0.781c0.15-0.336,0.254-0.725,0.312-1.169
					c0.056-0.441,0.085-0.921,0.085-1.436c0-0.527-0.032-1.028-0.097-1.499c-0.063-0.472-0.182-0.887-0.353-1.242
					c-0.172-0.357-0.404-0.637-0.697-0.836c-0.293-0.2-0.667-0.3-1.125-0.3C-167.285,121.129-167.623,121.222-167.889,121.407z"/>
				<path d="M-146.623,130.428c-0.029-0.015-0.094-0.084-0.192-0.204c-0.101-0.122-0.211-0.289-0.333-0.504
					c-0.122-0.214-0.24-0.482-0.354-0.804c-0.115-0.321-0.187-0.696-0.214-1.124c-0.243,0.856-0.632,1.503-1.168,1.938
					c-0.536,0.437-1.261,0.654-2.175,0.654c-0.671,0-1.254-0.126-1.746-0.376c-0.492-0.249-0.904-0.607-1.232-1.071
					c-0.329-0.463-0.57-1.023-0.729-1.682c-0.156-0.656-0.236-1.385-0.236-2.186c0-0.814,0.126-1.567,0.376-2.26
					c0.249-0.693,0.6-1.289,1.051-1.79c0.448-0.499,0.988-0.892,1.617-1.178c0.629-0.285,1.321-0.428,2.077-0.428
					c0.258,0,0.532,0.013,0.825,0.042s0.582,0.065,0.868,0.106v-4.843l2.442,0.43v9.941c0,0.856,0.05,1.568,0.15,2.132
					c0.101,0.565,0.215,1.021,0.342,1.371c0.129,0.351,0.248,0.604,0.354,0.761c0.106,0.158,0.167,0.258,0.182,0.3L-146.623,130.428
					z M-149.666,128.284c0.3-0.243,0.561-0.561,0.782-0.953c0.221-0.393,0.393-0.839,0.515-1.339
					c0.121-0.501,0.182-1.016,0.182-1.543v-3.085c-0.144-0.044-0.357-0.094-0.643-0.15c-0.286-0.056-0.543-0.085-0.771-0.085
					c-0.543,0-0.989,0.093-1.339,0.278c-0.351,0.186-0.633,0.442-0.847,0.771c-0.214,0.328-0.364,0.721-0.449,1.178
					c-0.087,0.458-0.13,0.958-0.13,1.5c0,0.5,0.016,0.979,0.043,1.436c0.029,0.458,0.104,0.861,0.226,1.21
					c0.122,0.352,0.296,0.629,0.524,0.835c0.229,0.208,0.536,0.312,0.922,0.312C-150.295,128.649-149.966,128.528-149.666,128.284z"
					/>
				<path d="M-143.121,122.65c0.266-0.729,0.629-1.339,1.094-1.832c0.464-0.492,1.01-0.863,1.639-1.113
					c0.629-0.251,1.308-0.376,2.035-0.376c0.644,0,1.189,0.079,1.639,0.235c0.451,0.159,0.818,0.373,1.104,0.645
					c0.285,0.271,0.496,0.592,0.633,0.963c0.136,0.372,0.203,0.772,0.203,1.2c0,0.515-0.143,1.004-0.429,1.467
					c-0.285,0.466-0.696,0.872-1.231,1.222c-0.537,0.351-1.182,0.629-1.939,0.836c-0.757,0.207-1.606,0.317-2.55,0.332
					c0.043,0.329,0.11,0.64,0.204,0.932c0.092,0.294,0.229,0.551,0.407,0.771c0.178,0.223,0.41,0.397,0.696,0.525
					s0.643,0.192,1.071,0.192c0.314,0,0.649-0.035,1.007-0.106c0.357-0.072,0.686-0.158,0.985-0.258
					c0.357-0.113,0.708-0.243,1.05-0.386l0.643,1.521c-0.371,0.186-0.771,0.351-1.199,0.493c-0.372,0.128-0.801,0.243-1.285,0.343
					c-0.486,0.1-1,0.149-1.544,0.149c-0.828,0-1.534-0.124-2.12-0.375c-0.586-0.25-1.064-0.603-1.436-1.061
					c-0.371-0.456-0.643-1.007-0.814-1.649c-0.171-0.643-0.258-1.356-0.258-2.143C-143.518,124.221-143.386,123.379-143.121,122.65z
					 M-139.714,121.332c-0.308,0.221-0.554,0.507-0.739,0.857c-0.186,0.35-0.317,0.742-0.396,1.178
					c-0.078,0.436-0.125,0.874-0.139,1.317c0.686-0.029,1.267-0.117,1.747-0.267c0.478-0.151,0.866-0.336,1.166-0.559
					c0.3-0.222,0.519-0.459,0.654-0.718c0.136-0.256,0.203-0.514,0.203-0.771c0-0.414-0.122-0.746-0.364-0.996
					c-0.243-0.25-0.564-0.376-0.964-0.376C-139.018,120.999-139.406,121.112-139.714,121.332z"/>
				<path d="M-119.198,118.664c-0.344-0.371-0.704-0.654-1.083-0.846c-0.378-0.193-0.817-0.29-1.316-0.29
					c-0.615,0-1.133,0.141-1.554,0.418c-0.422,0.278-0.761,0.664-1.018,1.158c-0.258,0.492-0.443,1.067-0.558,1.725
					c-0.115,0.655-0.171,1.363-0.171,2.12s0.053,1.465,0.16,2.121c0.107,0.657,0.292,1.235,0.558,1.736
					c0.264,0.5,0.621,0.893,1.071,1.178c0.449,0.286,1.018,0.429,1.703,0.429c0.328,0,0.642-0.029,0.942-0.085
					c0.299-0.058,0.574-0.118,0.824-0.183c0.251-0.064,0.458-0.124,0.622-0.183c0.164-0.057,0.268-0.092,0.311-0.106l0.6,1.799
					l-0.278,0.108c-0.186,0.071-0.446,0.152-0.782,0.245s-0.735,0.178-1.2,0.258c-0.464,0.077-0.975,0.118-1.531,0.118
					c-1.914,0-3.354-0.612-4.316-1.833c-0.966-1.221-1.447-3.01-1.447-5.366c0-1.128,0.129-2.16,0.387-3.096
					c0.256-0.937,0.646-1.739,1.166-2.411c0.521-0.671,1.179-1.193,1.972-1.563c0.792-0.371,1.725-0.559,2.796-0.559
					c0.857,0,1.562,0.159,2.11,0.473c0.55,0.313,0.997,0.671,1.339,1.071L-119.198,118.664z"/>
				<path d="M-113.843,115.236c0.242,0.271,0.363,0.621,0.363,1.051c0,0.429-0.124,0.785-0.374,1.071
					c-0.251,0.285-0.618,0.429-1.104,0.429c-0.457,0-0.811-0.14-1.061-0.418c-0.25-0.279-0.375-0.617-0.375-1.018
					c0-0.443,0.125-0.808,0.375-1.094c0.25-0.285,0.625-0.428,1.125-0.428C-114.436,114.829-114.086,114.965-113.843,115.236z
					 M-115.557,129.667c-0.401-0.45-0.601-1.032-0.601-1.747v-8.335h2.442v8.122c0,0.326,0.051,0.549,0.15,0.663
					s0.25,0.172,0.451,0.172c0.056,0,0.117,0,0.182,0c0.063,0,0.124-0.007,0.182-0.022c0.058,0,0.122-0.006,0.192-0.021l0.258,1.542
					c-0.1,0.058-0.229,0.107-0.386,0.149c-0.128,0.044-0.29,0.08-0.482,0.108c-0.193,0.027-0.41,0.042-0.653,0.042
					C-114.578,130.341-115.156,130.116-115.557,129.667z"/>
				<path d="M-110.833,122.65c0.266-0.729,0.629-1.339,1.094-1.832c0.464-0.492,1.01-0.863,1.639-1.113
					c0.629-0.251,1.308-0.376,2.035-0.376c0.644,0,1.189,0.079,1.639,0.235c0.45,0.159,0.818,0.373,1.104,0.645
					c0.284,0.271,0.495,0.592,0.632,0.963c0.136,0.372,0.203,0.772,0.203,1.2c0,0.515-0.143,1.004-0.429,1.467
					c-0.285,0.466-0.696,0.872-1.231,1.222c-0.536,0.351-1.182,0.629-1.939,0.836c-0.757,0.207-1.606,0.317-2.55,0.332
					c0.043,0.329,0.111,0.64,0.205,0.932c0.091,0.294,0.229,0.551,0.406,0.771c0.178,0.223,0.41,0.397,0.696,0.525
					c0.285,0.128,0.643,0.192,1.071,0.192c0.314,0,0.649-0.035,1.007-0.106c0.356-0.072,0.686-0.158,0.986-0.258
					c0.356-0.113,0.706-0.243,1.049-0.386l0.643,1.521c-0.372,0.186-0.771,0.351-1.2,0.493c-0.371,0.128-0.8,0.243-1.284,0.343
					c-0.486,0.1-1,0.149-1.543,0.149c-0.829,0-1.535-0.124-2.121-0.375c-0.587-0.25-1.064-0.603-1.436-1.061
					c-0.372-0.456-0.643-1.007-0.814-1.649s-0.258-1.356-0.258-2.143C-111.229,124.221-111.097,123.379-110.833,122.65z
					 M-107.426,121.332c-0.308,0.221-0.553,0.507-0.739,0.857c-0.186,0.35-0.317,0.742-0.396,1.178
					c-0.078,0.436-0.125,0.874-0.139,1.317c0.686-0.029,1.267-0.117,1.747-0.267c0.478-0.151,0.866-0.336,1.166-0.559
					c0.3-0.222,0.519-0.459,0.654-0.718c0.135-0.256,0.203-0.514,0.203-0.771c0-0.414-0.122-0.746-0.364-0.996
					c-0.243-0.25-0.564-0.376-0.964-0.376C-106.729,120.999-107.118,121.112-107.426,121.332z"/>
				<path d="M-93.81,130.256v-6.921c0-0.601-0.108-1.082-0.321-1.446c-0.215-0.363-0.579-0.545-1.093-0.545
					c-0.329,0-0.646,0.081-0.954,0.244c-0.308,0.165-0.582,0.405-0.824,0.719c-0.243,0.313-0.439,0.697-0.59,1.146
					c-0.149,0.451-0.225,0.954-0.225,1.511v5.293h-2.442v-5.399c0-0.856-0.057-1.574-0.171-2.152
					c-0.115-0.58-0.236-1.047-0.365-1.405c-0.157-0.414-0.328-0.749-0.514-1.006l1.929-0.771c0.142,0.156,0.285,0.349,0.428,0.577
					c0.114,0.2,0.229,0.447,0.343,0.74c0.114,0.292,0.207,0.624,0.278,0.995c0.372-0.857,0.908-1.475,1.607-1.854
					c0.7-0.377,1.436-0.566,2.206-0.566c1.101,0,1.896,0.331,2.39,0.996c0.493,0.663,0.739,1.56,0.739,2.689v7.155H-93.81z"/>
				<path d="M-82.904,122.093c-0.214-0.243-0.433-0.449-0.653-0.621c-0.223-0.173-0.519-0.258-0.89-0.258
					c-0.214,0-0.453,0.033-0.718,0.097c-0.265,0.064-0.511,0.221-0.739,0.472c-0.229,0.25-0.418,0.617-0.567,1.104
					c-0.15,0.485-0.226,1.144-0.226,1.971c0,0.843,0.075,1.51,0.226,2.003c0.149,0.493,0.343,0.876,0.579,1.147
					c0.235,0.271,0.488,0.444,0.761,0.524c0.271,0.079,0.535,0.117,0.793,0.117c0.199,0,0.406-0.017,0.621-0.054
					c0.215-0.035,0.421-0.078,0.621-0.128c0.199-0.05,0.375-0.097,0.524-0.139c0.15-0.044,0.261-0.08,0.332-0.108l0.6,1.544
					c-0.042,0.014-0.139,0.056-0.289,0.127c-0.149,0.072-0.353,0.144-0.61,0.215c-0.257,0.072-0.564,0.14-0.921,0.203
					c-0.357,0.064-0.758,0.097-1.2,0.097c-0.829,0-1.535-0.124-2.121-0.375c-0.586-0.25-1.068-0.603-1.446-1.061
					c-0.379-0.456-0.657-1.007-0.835-1.649c-0.18-0.643-0.269-1.356-0.269-2.143c0-0.941,0.125-1.777,0.375-2.507
					c0.25-0.728,0.596-1.339,1.039-1.831c0.442-0.493,0.965-0.868,1.564-1.125c0.6-0.258,1.242-0.387,1.928-0.387
					c0.671,0,1.239,0.129,1.704,0.387c0.464,0.257,0.86,0.613,1.188,1.07L-82.904,122.093z"/>
				<path d="M-77.676,115.236c0.241,0.271,0.363,0.621,0.363,1.051c0,0.429-0.125,0.785-0.375,1.071
					c-0.25,0.285-0.618,0.429-1.103,0.429c-0.459,0-0.811-0.14-1.062-0.418c-0.25-0.279-0.375-0.617-0.375-1.018
					c0-0.443,0.125-0.808,0.375-1.094c0.251-0.285,0.625-0.428,1.125-0.428C-78.27,114.829-77.92,114.965-77.676,115.236z
					 M-79.391,129.667c-0.4-0.45-0.602-1.032-0.602-1.747v-8.335h2.444v8.122c0,0.326,0.05,0.549,0.149,0.663s0.25,0.172,0.45,0.172
					c0.057,0,0.118,0,0.182,0c0.064,0,0.126-0.007,0.182-0.022c0.059,0,0.122-0.006,0.193-0.021l0.258,1.542
					c-0.101,0.058-0.229,0.107-0.386,0.149c-0.129,0.044-0.29,0.08-0.483,0.108c-0.191,0.027-0.41,0.042-0.652,0.042
					C-78.413,130.341-78.991,130.116-79.391,129.667z"/>
				<path d="M-65.807,125.092c0,0.856,0.053,1.574,0.16,2.153c0.106,0.58,0.225,1.047,0.354,1.403
					c0.156,0.429,0.328,0.765,0.514,1.007l-1.906,0.772c-0.187-0.186-0.358-0.408-0.515-0.664c-0.128-0.229-0.25-0.503-0.364-0.826
					c-0.114-0.321-0.186-0.702-0.215-1.146c-0.242,0.856-0.633,1.503-1.167,1.938c-0.536,0.437-1.261,0.654-2.175,0.654
					c-0.673,0-1.253-0.126-1.746-0.376c-0.493-0.249-0.903-0.607-1.232-1.071c-0.329-0.463-0.571-1.023-0.729-1.682
					c-0.157-0.656-0.235-1.385-0.235-2.186c0-0.814,0.125-1.567,0.375-2.26c0.249-0.693,0.601-1.289,1.049-1.79
					c0.451-0.499,0.989-0.892,1.618-1.178c0.628-0.285,1.321-0.428,2.078-0.428c0.429,0,0.875,0.03,1.339,0.097
					c0.465,0.063,0.896,0.131,1.297,0.203c0.399,0.071,0.739,0.139,1.019,0.203c0.278,0.063,0.438,0.104,0.481,0.118V125.092z
					 M-69.728,128.307c0.299-0.244,0.561-0.562,0.782-0.954c0.221-0.393,0.393-0.844,0.514-1.35
					c0.121-0.508,0.183-1.026,0.183-1.554v-3.085c-0.144-0.044-0.357-0.094-0.644-0.15c-0.285-0.056-0.543-0.085-0.771-0.085
					c-0.543,0-0.99,0.093-1.339,0.278c-0.351,0.186-0.633,0.442-0.847,0.771c-0.215,0.328-0.364,0.721-0.45,1.178
					c-0.086,0.458-0.128,0.958-0.128,1.5c0,0.5,0.013,0.979,0.042,1.436c0.029,0.458,0.104,0.864,0.225,1.222
					c0.122,0.357,0.297,0.64,0.525,0.846c0.229,0.207,0.536,0.311,0.922,0.311C-70.357,128.67-70.028,128.548-69.728,128.307z"/>
				<path d="M-59.786,119.328c0.414,0,0.82,0.044,1.221,0.129s0.758,0.186,1.072,0.3c0.371,0.128,0.714,0.266,1.027,0.406
					l-0.728,1.672c-0.286-0.129-0.572-0.242-0.857-0.343c-0.243-0.085-0.511-0.167-0.804-0.245c-0.293-0.08-0.581-0.118-0.867-0.118
					c-0.329,0-0.611,0.078-0.847,0.235s-0.354,0.394-0.354,0.707c0,0.814,0.592,1.45,1.778,1.906
					c0.443,0.172,0.844,0.354,1.199,0.547c0.358,0.193,0.661,0.418,0.911,0.675c0.25,0.258,0.439,0.554,0.567,0.89
					c0.13,0.335,0.193,0.731,0.193,1.188c0,0.4-0.082,0.793-0.246,1.179c-0.164,0.387-0.408,0.729-0.729,1.028
					c-0.32,0.3-0.714,0.538-1.178,0.718c-0.465,0.179-0.988,0.268-1.575,0.268c-0.471,0-0.936-0.053-1.393-0.161
					c-0.457-0.106-0.867-0.225-1.231-0.354c-0.365-0.128-0.653-0.248-0.868-0.364l-0.321-0.148l0.793-1.801l0.278,0.15
					c0.186,0.114,0.421,0.236,0.707,0.364c0.285,0.128,0.592,0.246,0.921,0.354c0.329,0.106,0.629,0.16,0.9,0.16
					c0.5,0,0.871-0.099,1.114-0.3c0.243-0.199,0.365-0.464,0.365-0.793c0-0.37-0.134-0.71-0.397-1.018
					c-0.265-0.306-0.661-0.56-1.189-0.761c-1.1-0.414-1.889-0.885-2.367-1.414c-0.479-0.528-0.718-1.214-0.718-2.057
					c0-0.399,0.093-0.781,0.278-1.146c0.186-0.364,0.439-0.686,0.761-0.964c0.321-0.279,0.704-0.495,1.146-0.654
					C-60.778,119.407-60.301,119.328-59.786,119.328z"/>
				<path d="M-232.025,141.461h2.014l5.592,14.506h-2.721l-1.328-3.793h-5.228l-1.371,3.793h-2.528L-232.025,141.461z
					 M-229.133,150.288c-0.457-1.285-0.85-2.453-1.178-3.503c-0.329-1.049-0.579-1.875-0.75-2.475
					c-0.201,0.643-0.464,1.486-0.793,2.528c-0.329,1.043-0.714,2.192-1.157,3.449H-229.133z"/>
				<path d="M-222.94,160.702v-10.135c0-0.857-0.057-1.575-0.172-2.153c-0.114-0.579-0.235-1.046-0.364-1.404
					c-0.157-0.414-0.329-0.749-0.514-1.007l1.928-0.77c0.171,0.17,0.328,0.385,0.471,0.642c0.114,0.214,0.228,0.476,0.343,0.782
					c0.114,0.308,0.2,0.667,0.257,1.082c0.243-0.857,0.628-1.507,1.157-1.95c0.529-0.442,1.265-0.664,2.207-0.664
					c0.671,0,1.253,0.125,1.746,0.375c0.493,0.25,0.9,0.607,1.221,1.072c0.322,0.464,0.561,1.023,0.718,1.681
					c0.157,0.658,0.236,1.387,0.236,2.186c0,0.814-0.122,1.568-0.364,2.261c-0.243,0.692-0.589,1.289-1.04,1.789
					c-0.449,0.499-0.989,0.893-1.617,1.178c-0.629,0.287-1.329,0.429-2.1,0.429c-0.271,0-0.546-0.014-0.825-0.043
					c-0.279-0.029-0.561-0.057-0.847-0.085v4.307L-222.94,160.702z M-219.02,147.203c-0.3,0.243-0.561,0.564-0.782,0.964
					c-0.222,0.399-0.394,0.851-0.515,1.35c-0.122,0.501-0.182,1.016-0.182,1.544v3.085c0.143,0.043,0.357,0.093,0.643,0.149
					c0.285,0.059,0.535,0.085,0.75,0.085c0.543,0,0.993-0.092,1.35-0.277c0.357-0.185,0.643-0.443,0.857-0.771
					s0.364-0.721,0.45-1.179c0.086-0.456,0.129-0.957,0.129-1.5c0-0.499-0.015-0.978-0.043-1.436
					c-0.029-0.457-0.104-0.863-0.225-1.221c-0.122-0.356-0.296-0.639-0.525-0.847c-0.229-0.207-0.536-0.311-0.921-0.311
					C-218.392,146.839-218.72,146.961-219.02,147.203z"/>
				<path d="M-211.071,155.377c-0.385-0.449-0.578-1.023-0.578-1.725v-12.792l2.442-0.448v13.005c0,0.328,0.064,0.557,0.192,0.686
					c0.129,0.128,0.314,0.192,0.557,0.192c0.143,0,0.283-0.007,0.418-0.021c0.135-0.014,0.261-0.035,0.375-0.063
					c0.128-0.029,0.243-0.057,0.343-0.086l0.3,1.542c-0.185,0.072-0.393,0.136-0.621,0.193c-0.2,0.057-0.436,0.104-0.707,0.139
					c-0.272,0.036-0.579,0.054-0.921,0.054C-210.085,156.052-210.686,155.827-211.071,155.377z"/>
				<path d="M-203.08,140.947c0.243,0.272,0.364,0.621,0.364,1.05c0,0.43-0.125,0.786-0.375,1.072
					c-0.25,0.285-0.618,0.429-1.104,0.429c-0.457,0-0.811-0.141-1.061-0.417c-0.25-0.28-0.375-0.619-0.375-1.019
					c0-0.443,0.125-0.808,0.375-1.094c0.25-0.285,0.625-0.429,1.125-0.429C-203.673,140.539-203.323,140.676-203.08,140.947z
					 M-204.793,155.377c-0.4-0.449-0.6-1.031-0.6-1.746v-8.335h2.443v8.121c0,0.328,0.05,0.55,0.15,0.663
					c0.099,0.114,0.249,0.173,0.45,0.173c0.057,0,0.118,0,0.183,0c0.063,0,0.124-0.008,0.181-0.022c0.058,0,0.122-0.007,0.193-0.021
					l0.257,1.542c-0.1,0.058-0.228,0.107-0.385,0.149c-0.129,0.044-0.29,0.079-0.482,0.107c-0.193,0.028-0.411,0.043-0.653,0.043
					C-203.815,156.052-204.394,155.827-204.793,155.377z"/>
				<path d="M-194.038,147.805c-0.214-0.244-0.432-0.451-0.653-0.623c-0.222-0.172-0.518-0.257-0.889-0.257
					c-0.215,0-0.454,0.032-0.718,0.097c-0.265,0.065-0.511,0.222-0.74,0.472c-0.228,0.249-0.417,0.617-0.568,1.103
					c-0.15,0.485-0.225,1.144-0.225,1.972c0,0.843,0.075,1.51,0.225,2.003c0.15,0.492,0.343,0.875,0.579,1.146
					s0.489,0.445,0.76,0.524c0.271,0.079,0.536,0.118,0.793,0.118c0.2,0,0.407-0.018,0.622-0.053
					c0.214-0.037,0.421-0.079,0.621-0.13c0.2-0.05,0.375-0.097,0.524-0.139c0.15-0.043,0.261-0.079,0.333-0.107l0.6,1.543
					c-0.043,0.016-0.14,0.057-0.29,0.127c-0.15,0.074-0.353,0.145-0.61,0.215c-0.257,0.073-0.564,0.141-0.921,0.203
					c-0.357,0.065-0.757,0.097-1.2,0.097c-0.828,0-1.536-0.123-2.121-0.373c-0.585-0.251-1.068-0.604-1.446-1.063
					c-0.379-0.456-0.657-1.006-0.836-1.647c-0.179-0.644-0.268-1.358-0.268-2.145c0-0.941,0.125-1.777,0.375-2.507
					c0.25-0.728,0.596-1.339,1.039-1.83c0.442-0.493,0.964-0.869,1.563-1.126c0.6-0.257,1.243-0.385,1.929-0.385
					c0.671,0,1.239,0.128,1.703,0.385c0.464,0.257,0.861,0.615,1.189,1.071L-194.038,147.805z"/>
				<path d="M-182.64,150.803c0,0.856,0.054,1.574,0.161,2.153c0.107,0.579,0.225,1.047,0.354,1.403
					c0.157,0.429,0.329,0.764,0.514,1.007l-1.906,0.772c-0.187-0.186-0.357-0.408-0.514-0.665c-0.129-0.229-0.25-0.503-0.364-0.825
					c-0.114-0.321-0.187-0.703-0.214-1.146c-0.243,0.856-0.632,1.503-1.168,1.938c-0.536,0.437-1.261,0.653-2.174,0.653
					c-0.672,0-1.253-0.125-1.747-0.376c-0.492-0.248-0.903-0.606-1.232-1.07s-0.571-1.024-0.728-1.682
					c-0.157-0.656-0.236-1.385-0.236-2.186c0-0.814,0.125-1.567,0.375-2.259c0.25-0.695,0.6-1.29,1.049-1.791
					c0.45-0.499,0.989-0.893,1.618-1.178c0.628-0.286,1.321-0.429,2.078-0.429c0.428,0,0.875,0.032,1.339,0.097
					c0.464,0.063,0.896,0.131,1.296,0.203s0.739,0.14,1.018,0.203c0.279,0.064,0.439,0.104,0.482,0.118V150.803z M-186.56,154.017
					c0.299-0.243,0.56-0.562,0.782-0.954c0.221-0.393,0.393-0.842,0.515-1.349c0.121-0.509,0.182-1.025,0.182-1.553v-3.086
					c-0.144-0.044-0.357-0.093-0.643-0.15c-0.287-0.057-0.544-0.086-0.772-0.086c-0.543,0-0.989,0.094-1.339,0.278
					c-0.35,0.186-0.632,0.443-0.846,0.772c-0.214,0.328-0.365,0.722-0.45,1.178c-0.086,0.457-0.128,0.958-0.128,1.5
					c0,0.5,0.014,0.979,0.042,1.436c0.029,0.458,0.104,0.864,0.225,1.221c0.122,0.357,0.297,0.64,0.525,0.847
					c0.229,0.207,0.536,0.31,0.922,0.31C-187.189,154.38-186.86,154.26-186.56,154.017z"/>
				<path d="M-172.035,156.139c-0.029-0.016-0.093-0.083-0.192-0.205c-0.1-0.121-0.211-0.288-0.332-0.503
					c-0.122-0.215-0.24-0.482-0.353-0.804c-0.115-0.32-0.187-0.696-0.214-1.124c-0.243,0.856-0.633,1.503-1.168,1.938
					c-0.535,0.437-1.26,0.653-2.174,0.653c-0.672,0-1.253-0.125-1.746-0.376c-0.493-0.248-0.904-0.606-1.232-1.07
					s-0.571-1.024-0.729-1.682c-0.157-0.656-0.235-1.385-0.235-2.186c0-0.814,0.125-1.567,0.375-2.259
					c0.249-0.695,0.6-1.29,1.049-1.791c0.45-0.499,0.989-0.893,1.618-1.178c0.628-0.286,1.321-0.429,2.079-0.429
					c0.257,0,0.532,0.015,0.825,0.043c0.292,0.028,0.582,0.065,0.868,0.106v-4.843l2.442,0.429v9.942
					c0,0.856,0.05,1.567,0.151,2.132c0.1,0.565,0.214,1.021,0.343,1.372c0.127,0.35,0.247,0.603,0.353,0.76
					c0.107,0.157,0.167,0.258,0.183,0.3L-172.035,156.139z M-175.076,153.995c0.299-0.242,0.56-0.56,0.781-0.954
					c0.221-0.393,0.393-0.838,0.515-1.339c0.121-0.5,0.182-1.014,0.182-1.541v-3.086c-0.143-0.044-0.357-0.093-0.643-0.15
					c-0.286-0.057-0.543-0.086-0.771-0.086c-0.542,0-0.989,0.094-1.338,0.278c-0.35,0.186-0.632,0.443-0.847,0.772
					c-0.214,0.328-0.364,0.722-0.45,1.178c-0.086,0.457-0.129,0.958-0.129,1.5c0,0.5,0.014,0.979,0.043,1.436
					c0.029,0.458,0.104,0.86,0.225,1.21c0.122,0.351,0.297,0.629,0.525,0.836c0.229,0.208,0.535,0.311,0.921,0.311
					C-175.705,154.36-175.376,154.239-175.076,153.995z"/>
				<path d="M-159.672,150.803c0,0.856,0.055,1.574,0.16,2.153c0.107,0.579,0.226,1.047,0.354,1.403
					c0.157,0.429,0.329,0.764,0.515,1.007l-1.907,0.772c-0.187-0.186-0.357-0.408-0.515-0.665c-0.128-0.229-0.25-0.503-0.364-0.825
					c-0.114-0.321-0.186-0.703-0.215-1.146c-0.241,0.856-0.632,1.503-1.166,1.938c-0.536,0.437-1.262,0.653-2.175,0.653
					c-0.673,0-1.254-0.125-1.747-0.376c-0.492-0.248-0.903-0.606-1.232-1.07s-0.57-1.024-0.728-1.682
					c-0.157-0.656-0.236-1.385-0.236-2.186c0-0.814,0.126-1.567,0.376-2.259c0.249-0.695,0.6-1.29,1.048-1.791
					c0.451-0.499,0.99-0.893,1.619-1.178c0.628-0.286,1.321-0.429,2.078-0.429c0.428,0,0.875,0.032,1.339,0.097
					c0.465,0.063,0.896,0.131,1.297,0.203c0.399,0.072,0.738,0.14,1.018,0.203c0.278,0.064,0.438,0.104,0.481,0.118V150.803z
					 M-163.592,154.017c0.299-0.243,0.56-0.562,0.782-0.954c0.22-0.393,0.393-0.842,0.514-1.349c0.12-0.509,0.183-1.025,0.183-1.553
					v-3.086c-0.144-0.044-0.358-0.093-0.644-0.15c-0.285-0.057-0.543-0.086-0.771-0.086c-0.544,0-0.99,0.094-1.34,0.278
					c-0.35,0.186-0.632,0.443-0.847,0.772c-0.214,0.328-0.363,0.722-0.449,1.178c-0.087,0.457-0.129,0.958-0.129,1.5
					c0,0.5,0.015,0.979,0.042,1.436c0.029,0.458,0.104,0.864,0.226,1.221c0.121,0.357,0.297,0.64,0.525,0.847s0.536,0.31,0.921,0.31
					C-164.222,154.38-163.893,154.26-163.592,154.017z"/>
				<path d="M-153.651,145.04c0.414,0,0.821,0.042,1.221,0.128c0.4,0.085,0.759,0.185,1.072,0.3
					c0.371,0.128,0.714,0.265,1.028,0.407l-0.729,1.671c-0.285-0.129-0.57-0.243-0.857-0.343c-0.242-0.086-0.511-0.167-0.803-0.246
					c-0.293-0.079-0.582-0.118-0.867-0.118c-0.329,0-0.611,0.079-0.847,0.236c-0.236,0.157-0.354,0.393-0.354,0.706
					c0,0.814,0.593,1.451,1.779,1.907c0.442,0.172,0.843,0.354,1.199,0.546c0.357,0.193,0.661,0.418,0.91,0.676
					c0.25,0.257,0.439,0.554,0.568,0.89c0.129,0.335,0.193,0.731,0.193,1.188c0,0.399-0.082,0.792-0.247,1.179
					c-0.164,0.386-0.407,0.728-0.728,1.027c-0.322,0.3-0.715,0.54-1.179,0.718c-0.465,0.18-0.989,0.269-1.576,0.269
					c-0.47,0-0.935-0.054-1.392-0.162c-0.458-0.106-0.868-0.224-1.231-0.353c-0.364-0.128-0.654-0.249-0.869-0.365l-0.32-0.148
					l0.793-1.8l0.278,0.15c0.186,0.114,0.421,0.235,0.706,0.364c0.286,0.128,0.593,0.246,0.922,0.354
					c0.328,0.106,0.628,0.159,0.9,0.159c0.5,0,0.871-0.099,1.114-0.3c0.242-0.199,0.364-0.463,0.364-0.792
					c0-0.37-0.133-0.71-0.396-1.018c-0.265-0.307-0.661-0.561-1.19-0.762c-1.099-0.413-1.888-0.884-2.366-1.413
					c-0.479-0.529-0.718-1.214-0.718-2.057c0-0.399,0.093-0.782,0.278-1.146c0.185-0.364,0.439-0.686,0.761-0.965
					c0.321-0.276,0.703-0.495,1.146-0.653C-154.644,145.118-154.166,145.04-153.651,145.04z"/>
				<path d="M-133.79,151.639c0,0.429,0.032,0.822,0.097,1.179s0.136,0.71,0.214,1.06c0.079,0.351,0.154,0.704,0.226,1.062
					c0.07,0.356,0.106,0.75,0.106,1.177c0,1.516-0.385,2.644-1.157,3.386c-0.771,0.743-1.813,1.115-3.128,1.115
					c-0.429,0-0.857-0.04-1.284-0.117c-0.429-0.08-0.825-0.17-1.19-0.269c-0.363-0.101-0.674-0.201-0.932-0.3
					c-0.257-0.102-0.429-0.172-0.515-0.215l0.601-1.865c0.199,0.087,0.424,0.176,0.675,0.27c0.249,0.093,0.507,0.182,0.771,0.267
					c0.266,0.086,0.54,0.157,0.825,0.215c0.285,0.057,0.564,0.085,0.836,0.085c0.8,0,1.379-0.237,1.735-0.718
					c0.357-0.478,0.536-1.097,0.536-1.854c0-0.685-0.144-1.392-0.429-2.12c-0.4,0.758-0.933,1.296-1.596,1.617
					c-0.665,0.321-1.36,0.482-2.09,0.482c-1.128,0-1.932-0.329-2.41-0.985s-0.718-1.558-0.718-2.7v-7.113h2.442v7.049
					c0,0.6,0.107,1.072,0.322,1.414c0.214,0.344,0.578,0.515,1.093,0.515c0.271,0,0.559-0.079,0.867-0.235
					c0.307-0.157,0.585-0.376,0.835-0.653c0.25-0.278,0.457-0.614,0.621-1.008c0.165-0.392,0.248-0.816,0.248-1.274v-5.807h2.505
					L-133.79,151.639z"/>
				<path d="M-116.585,141.461l-0.321,1.929h-3.6v12.577h-2.529V143.39h-3.663v-1.929H-116.585z"/>
				<path d="M-116.917,148.361c0.265-0.729,0.629-1.339,1.093-1.832c0.465-0.492,1.01-0.864,1.639-1.113
					c0.629-0.25,1.308-0.375,2.035-0.375c0.644,0,1.19,0.078,1.639,0.234c0.451,0.158,0.818,0.373,1.105,0.644
					c0.284,0.271,0.495,0.592,0.631,0.964s0.203,0.771,0.203,1.199c0,0.515-0.142,1.005-0.428,1.469s-0.697,0.87-1.231,1.221
					c-0.536,0.35-1.183,0.628-1.94,0.835c-0.757,0.208-1.606,0.317-2.55,0.333c0.043,0.329,0.111,0.64,0.204,0.932
					c0.092,0.293,0.229,0.551,0.407,0.771c0.179,0.222,0.41,0.396,0.697,0.525c0.285,0.128,0.642,0.192,1.07,0.192
					c0.314,0,0.65-0.035,1.007-0.106c0.357-0.072,0.687-0.158,0.987-0.258c0.355-0.114,0.706-0.242,1.048-0.386l0.643,1.521
					c-0.371,0.186-0.77,0.351-1.199,0.493c-0.371,0.128-0.8,0.242-1.285,0.343c-0.486,0.1-1,0.148-1.543,0.148
					c-0.828,0-1.535-0.123-2.121-0.373c-0.586-0.251-1.063-0.604-1.436-1.063c-0.371-0.456-0.643-1.006-0.814-1.647
					c-0.171-0.644-0.257-1.358-0.257-2.145C-117.313,149.932-117.182,149.089-116.917,148.361z M-113.51,147.042
					c-0.308,0.222-0.554,0.507-0.739,0.857c-0.186,0.35-0.318,0.742-0.396,1.179c-0.079,0.436-0.125,0.875-0.14,1.317
					c0.686-0.027,1.268-0.117,1.747-0.268c0.478-0.149,0.866-0.335,1.167-0.558c0.3-0.222,0.518-0.46,0.653-0.718
					c0.136-0.257,0.203-0.514,0.203-0.771c0-0.413-0.122-0.745-0.363-0.994c-0.244-0.251-0.565-0.377-0.965-0.377
					C-112.813,146.71-113.202,146.822-113.51,147.042z"/>
				<path d="M-100.751,147.805c-0.215-0.244-0.434-0.451-0.654-0.623s-0.519-0.257-0.889-0.257c-0.214,0-0.454,0.032-0.718,0.097
					c-0.264,0.065-0.512,0.222-0.74,0.472c-0.229,0.249-0.418,0.617-0.566,1.103c-0.151,0.485-0.226,1.144-0.226,1.972
					c0,0.843,0.074,1.51,0.226,2.003c0.148,0.492,0.342,0.875,0.578,1.146s0.489,0.445,0.761,0.524
					c0.271,0.079,0.536,0.118,0.793,0.118c0.199,0,0.406-0.018,0.621-0.053c0.215-0.037,0.422-0.079,0.621-0.13
					c0.2-0.05,0.375-0.097,0.525-0.139c0.149-0.043,0.26-0.079,0.332-0.107l0.6,1.543c-0.043,0.016-0.14,0.057-0.29,0.127
					c-0.149,0.074-0.353,0.145-0.61,0.215c-0.257,0.073-0.564,0.141-0.921,0.203c-0.357,0.065-0.757,0.097-1.199,0.097
					c-0.829,0-1.536-0.123-2.122-0.373c-0.585-0.251-1.068-0.604-1.445-1.063c-0.379-0.456-0.658-1.006-0.836-1.647
					c-0.179-0.644-0.268-1.358-0.268-2.145c0-0.941,0.124-1.777,0.374-2.507c0.25-0.728,0.597-1.339,1.039-1.83
					c0.443-0.493,0.966-0.869,1.565-1.126s1.242-0.385,1.928-0.385c0.67,0,1.239,0.128,1.703,0.385s0.861,0.615,1.19,1.071
					L-100.751,147.805z"/>
				<path d="M-91.11,155.967v-6.921c0-0.6-0.106-1.082-0.321-1.446s-0.578-0.546-1.093-0.546c-0.329,0-0.646,0.082-0.953,0.245
					c-0.308,0.165-0.582,0.405-0.825,0.718c-0.244,0.314-0.439,0.697-0.589,1.147c-0.15,0.449-0.226,0.953-0.226,1.51v5.293h-2.441
					v-5.399c0-0.857-0.059-1.575-0.172-2.153c-0.114-0.579-0.236-1.046-0.364-1.404c-0.158-0.414-0.329-0.749-0.515-1.007
					l1.929-0.77c0.143,0.156,0.284,0.349,0.428,0.577c0.114,0.2,0.229,0.446,0.343,0.74c0.115,0.292,0.208,0.624,0.279,0.995
					c0.37-0.856,0.906-1.476,1.606-1.854s1.436-0.567,2.207-0.567c1.1,0,1.896,0.332,2.388,0.996c0.494,0.664,0.74,1.561,0.74,2.689
					v7.156H-91.11z"/>
				<path d="M-78.169,146.496c0.742,0.972,1.114,2.308,1.114,4.007c0,0.799-0.101,1.546-0.3,2.238
					c-0.2,0.694-0.503,1.294-0.91,1.801c-0.407,0.506-0.919,0.906-1.532,1.2c-0.615,0.292-1.328,0.438-2.144,0.438
					c-0.814,0-1.518-0.125-2.11-0.375c-0.592-0.249-1.081-0.611-1.467-1.082s-0.668-1.042-0.847-1.714s-0.268-1.428-0.268-2.271
					c0-0.813,0.099-1.566,0.3-2.261c0.199-0.691,0.503-1.291,0.911-1.799c0.406-0.508,0.917-0.908,1.53-1.201
					c0.615-0.292,1.33-0.438,2.145-0.438C-80.104,145.04-78.912,145.526-78.169,146.496z M-82.979,147.117
					c-0.266,0.186-0.472,0.447-0.621,0.782c-0.15,0.336-0.254,0.729-0.311,1.179c-0.058,0.45-0.086,0.932-0.086,1.446
					c0,0.528,0.031,1.028,0.097,1.499c0.063,0.472,0.182,0.883,0.353,1.232c0.171,0.351,0.403,0.625,0.696,0.824
					c0.293,0.201,0.668,0.3,1.125,0.3c0.414,0,0.753-0.092,1.018-0.277c0.265-0.185,0.473-0.446,0.621-0.782
					c0.15-0.335,0.254-0.724,0.312-1.168c0.057-0.442,0.086-0.921,0.086-1.436c0-0.527-0.033-1.028-0.098-1.5
					c-0.063-0.471-0.182-0.886-0.353-1.242s-0.403-0.636-0.696-0.836c-0.293-0.199-0.668-0.3-1.125-0.3
					C-82.375,146.839-82.714,146.933-82.979,147.117z"/>
				<path d="M-74.441,155.377c-0.385-0.449-0.578-1.023-0.578-1.725v-12.792l2.442-0.448v13.005c0,0.328,0.064,0.557,0.192,0.686
					c0.13,0.128,0.315,0.192,0.558,0.192c0.143,0,0.282-0.007,0.418-0.021c0.135-0.014,0.261-0.035,0.375-0.063
					c0.128-0.029,0.243-0.057,0.343-0.086l0.3,1.542c-0.186,0.072-0.393,0.136-0.621,0.193c-0.2,0.057-0.436,0.104-0.706,0.139
					c-0.273,0.036-0.579,0.054-0.922,0.054C-73.455,156.052-74.055,155.827-74.441,155.377z"/>
				<path d="M-61.179,146.496c0.743,0.972,1.114,2.308,1.114,4.007c0,0.799-0.101,1.546-0.3,2.238
					c-0.201,0.694-0.504,1.294-0.911,1.801c-0.406,0.506-0.918,0.906-1.532,1.2c-0.613,0.292-1.327,0.438-2.142,0.438
					s-1.52-0.125-2.111-0.375c-0.592-0.249-1.081-0.611-1.467-1.082c-0.387-0.471-0.669-1.042-0.847-1.714
					c-0.179-0.672-0.268-1.428-0.268-2.271c0-0.813,0.099-1.566,0.3-2.261c0.199-0.691,0.504-1.291,0.91-1.799
					c0.407-0.508,0.918-0.908,1.532-1.201c0.614-0.292,1.329-0.438,2.144-0.438C-63.114,145.04-61.922,145.526-61.179,146.496z
					 M-65.988,147.117c-0.266,0.186-0.473,0.447-0.621,0.782c-0.151,0.336-0.255,0.729-0.312,1.179
					c-0.058,0.45-0.085,0.932-0.085,1.446c0,0.528,0.03,1.028,0.096,1.499c0.064,0.472,0.183,0.883,0.353,1.232
					c0.173,0.351,0.404,0.625,0.696,0.824c0.294,0.201,0.668,0.3,1.125,0.3c0.416,0,0.754-0.092,1.02-0.277
					c0.263-0.185,0.471-0.446,0.621-0.782c0.148-0.335,0.253-0.724,0.311-1.168c0.057-0.442,0.086-0.921,0.086-1.436
					c0-0.527-0.033-1.028-0.097-1.5c-0.064-0.471-0.183-0.886-0.354-1.242c-0.17-0.356-0.403-0.636-0.696-0.836
					c-0.292-0.199-0.668-0.3-1.124-0.3C-65.386,146.839-65.725,146.933-65.988,147.117z"/>
				<path d="M-56.315,157.851c0.215,0.087,0.443,0.176,0.686,0.27c0.243,0.093,0.5,0.182,0.771,0.267
					c0.271,0.086,0.546,0.157,0.824,0.215c0.278,0.057,0.554,0.085,0.825,0.085c0.8,0,1.379-0.237,1.736-0.718
					c0.356-0.478,0.535-1.097,0.535-1.854c0-0.741-0.158-1.491-0.472-2.248c-0.243,0.728-0.624,1.281-1.146,1.66
					c-0.521,0.379-1.21,0.567-2.066,0.567c-0.673,0-1.254-0.125-1.747-0.376c-0.492-0.248-0.903-0.606-1.232-1.07
					s-0.57-1.024-0.728-1.682c-0.157-0.656-0.236-1.385-0.236-2.186c0-0.814,0.126-1.567,0.376-2.259
					c0.249-0.695,0.6-1.29,1.049-1.791c0.45-0.499,0.989-0.893,1.618-1.178c0.628-0.286,1.321-0.429,2.078-0.429
					c0.343,0,0.71,0.021,1.104,0.063c0.393,0.045,0.778,0.097,1.156,0.161c0.379,0.065,0.735,0.133,1.072,0.204
					c0.336,0.071,0.625,0.136,0.867,0.192l-0.107,5.893c-0.013,0.429,0.011,0.822,0.076,1.179c0.063,0.356,0.139,0.71,0.224,1.06
					c0.087,0.351,0.165,0.704,0.236,1.062c0.071,0.356,0.106,0.75,0.106,1.177c0,1.516-0.385,2.644-1.157,3.386
					c-0.771,0.743-1.813,1.115-3.127,1.115c-0.429,0-0.857-0.04-1.285-0.117c-0.429-0.08-0.825-0.17-1.19-0.269
					c-0.363-0.101-0.674-0.201-0.932-0.3c-0.256-0.102-0.429-0.172-0.514-0.215L-56.315,157.851z M-53.262,154.038
					c0.292-0.229,0.553-0.532,0.781-0.911c0.229-0.378,0.407-0.81,0.536-1.296c0.128-0.484,0.193-0.985,0.193-1.5v-3.256
					c-0.144-0.044-0.358-0.093-0.644-0.15c-0.285-0.057-0.543-0.086-0.771-0.086c-0.544,0-0.99,0.094-1.339,0.278
					c-0.351,0.186-0.633,0.443-0.848,0.772c-0.214,0.328-0.363,0.722-0.449,1.178c-0.087,0.457-0.129,0.958-0.129,1.5
					c0,0.5,0.014,0.979,0.042,1.436c0.029,0.458,0.104,0.864,0.226,1.221c0.122,0.357,0.297,0.64,0.525,0.847s0.536,0.31,0.921,0.31
					C-53.873,154.38-53.556,154.267-53.262,154.038z"/>
				<path d="M-46.267,155.377c-0.4-0.449-0.601-1.031-0.601-1.746v-8.335h2.442v8.121c0,0.328,0.051,0.55,0.151,0.663
					c0.099,0.114,0.249,0.173,0.449,0.173c0.058,0,0.117,0,0.182,0s0.125-0.008,0.183-0.022c0.057,0,0.121-0.007,0.192-0.021
					l0.258,1.542c-0.1,0.058-0.229,0.107-0.386,0.149c-0.13,0.044-0.29,0.079-0.482,0.107s-0.411,0.043-0.653,0.043
					C-45.288,156.052-45.867,155.827-46.267,155.377z M-46.738,143.324l3-4.069l1.691,1.436c-0.428,0.528-0.856,1.021-1.284,1.479
					c-0.429,0.456-0.821,0.849-1.179,1.178c-0.415,0.386-0.814,0.743-1.199,1.072L-46.738,143.324z"/>
				<path d="M-32.683,150.803c0,0.856,0.053,1.574,0.16,2.153c0.106,0.579,0.225,1.047,0.354,1.403
					c0.156,0.429,0.328,0.764,0.514,1.007l-1.907,0.772c-0.186-0.186-0.357-0.408-0.515-0.665c-0.128-0.229-0.249-0.503-0.363-0.825
					c-0.114-0.321-0.186-0.703-0.215-1.146c-0.243,0.856-0.633,1.503-1.168,1.938c-0.535,0.437-1.26,0.653-2.174,0.653
					c-0.673,0-1.254-0.125-1.746-0.376c-0.494-0.248-0.904-0.606-1.232-1.07c-0.329-0.464-0.571-1.024-0.729-1.682
					c-0.158-0.656-0.235-1.385-0.235-2.186c0-0.814,0.124-1.567,0.374-2.259c0.25-0.695,0.602-1.29,1.05-1.791
					c0.45-0.499,0.989-0.893,1.617-1.178c0.629-0.286,1.321-0.429,2.079-0.429c0.429,0,0.875,0.032,1.339,0.097
					c0.464,0.063,0.896,0.131,1.296,0.203s0.74,0.14,1.018,0.203c0.28,0.064,0.44,0.104,0.483,0.118V150.803z M-36.604,154.017
					c0.3-0.243,0.562-0.562,0.782-0.954c0.222-0.393,0.393-0.842,0.514-1.349c0.122-0.509,0.184-1.025,0.184-1.553v-3.086
					c-0.144-0.044-0.357-0.093-0.644-0.15c-0.286-0.057-0.543-0.086-0.771-0.086c-0.542,0-0.989,0.094-1.34,0.278
					c-0.349,0.186-0.631,0.443-0.845,0.772c-0.215,0.328-0.365,0.722-0.451,1.178c-0.085,0.457-0.128,0.958-0.128,1.5
					c0,0.5,0.014,0.979,0.043,1.436c0.029,0.458,0.104,0.864,0.225,1.221c0.122,0.357,0.297,0.64,0.525,0.847
					c0.228,0.207,0.534,0.31,0.922,0.31C-37.233,154.38-36.904,154.26-36.604,154.017z"/>
			</g>
		</g>
		<g>
			<g>
				<path d="M-237.448,52.499h12.19v50.019h-12.19V52.499z"/>
				<path d="M-190.607,64.689c-1.379-1.673-2.709-2.794-3.989-3.361c-1.282-0.565-2.562-0.851-3.842-0.851
					c-3.203,0-5.53,1.491-6.982,4.471c-1.454,2.98-2.179,7.106-2.179,12.375c0,2.512,0.158,4.815,0.479,6.908
					c0.32,2.094,0.874,3.878,1.663,5.356c0.787,1.478,1.834,2.636,3.14,3.473c1.304,0.838,2.942,1.257,4.913,1.257
					c1.724,0,3.41-0.21,5.061-0.629c1.649-0.417,3.164-0.898,4.543-1.44l2.66,8.274c-1.527,0.641-3.449,1.208-5.763,1.699
					c-2.315,0.492-4.976,0.739-7.979,0.739c-7.585,0-13.126-2.154-16.624-6.465c-3.498-4.308-5.246-10.428-5.246-18.359
					c0-3.842,0.455-7.363,1.368-10.565c0.91-3.201,2.29-5.972,4.137-8.312c1.847-2.338,4.161-4.161,6.944-5.467
					c2.782-1.304,6.07-1.958,9.864-1.958c1.969,0,3.705,0.173,5.208,0.517c1.501,0.345,2.819,0.801,3.953,1.367
					c1.132,0.567,2.129,1.22,2.992,1.958c0.861,0.739,1.637,1.504,2.327,2.291L-190.607,64.689z"/>
				<path d="M-164.158,52.499h10.861l18.323,50.019h-12.34l-3.692-12.043h-16.181l-3.842,12.043h-12.117L-164.158,52.499z
					 M-153.74,81.461c-0.493-1.428-0.998-2.918-1.515-4.47c-0.517-1.551-1.01-3.066-1.479-4.543
					c-0.468-1.478-0.899-2.869-1.292-4.175c-0.395-1.304-0.739-2.401-1.035-3.288c-0.295,0.937-0.641,2.058-1.033,3.362
					c-0.396,1.305-0.826,2.696-1.293,4.174c-0.47,1.477-0.961,2.98-1.479,4.507s-1.022,3.005-1.514,4.433H-153.74z"/>
				<path d="M-104.389,52.499l-1.551,8.941h-11.525v41.078h-12.191V61.44h-11.896v-8.941H-104.389z"/>
			</g>
		</g>
	</g>
</g>
</svg>
